<?xml version="1.0" standalone="no"?>
<!DOCTYPE svg PUBLIC "-//W3C//DTD SVG 20010904//EN"
 "http://www.w3.org/TR/2001/REC-SVG-20010904/DTD/svg10.dtd">
<svg version="1.0" xmlns="http://www.w3.org/2000/svg"
 width="2084.000000pt" height="2084.000000pt" viewBox="0 0 2084.000000 2084.000000"
 preserveAspectRatio="xMidYMid meet">
<metadata>
Created by potrace 1.14, written by Peter Selinger 2001-2017
</metadata>
<g transform="translate(0.000000,2084.000000) scale(0.100000,-0.100000)"
fill="#000000" stroke="none">
<path d="M11283 17617 c-145 -108 -294 -442 -493 -1107 -35 -114 -110 -400
-110 -415 0 -9 -10 -15 -22 -16 -13 0 -32 -2 -43 -4 -11 -2 -56 -7 -99 -10
-44 -4 -82 -8 -85 -10 -4 -1 -31 -6 -62 -9 -31 -4 -66 -8 -76 -10 -11 -3 -44
-7 -74 -11 -176 -22 -465 -84 -618 -134 -83 -27 -99 -29 -140 -20 -25 6 -57
13 -71 15 -14 3 -37 8 -52 12 -17 4 -125 103 -276 252 -323 320 -438 427 -586
551 -16 13 -34 29 -40 35 -6 6 -63 51 -126 100 -133 105 -300 219 -456 311
-50 30 -278 143 -289 143 -3 0 -24 9 -48 19 -23 11 -80 34 -127 51 -47 17
-116 44 -155 58 -57 21 -87 26 -160 26 -106 -1 -179 -28 -240 -91 -33 -33 -92
-137 -99 -175 -5 -25 -16 -84 -21 -113 -7 -37 -6 -245 0 -300 3 -22 7 -60 10
-85 13 -110 58 -330 96 -470 11 -41 22 -83 24 -92 31 -136 267 -828 334 -983
5 -11 51 -126 102 -255 92 -235 259 -639 314 -765 7 -16 46 -104 86 -195 39
-91 107 -239 150 -329 48 -99 79 -177 79 -196 0 -18 -20 -70 -46 -121 -25 -49
-79 -152 -119 -229 -40 -77 -103 -198 -140 -270 -37 -71 -93 -179 -125 -240
-32 -60 -97 -186 -145 -280 -48 -93 -91 -174 -94 -180 -4 -5 -18 -45 -31 -87
-13 -44 -28 -75 -33 -71 -6 3 -7 1 -3 -5 4 -7 0 -24 -8 -39 -30 -56 -87 -265
-111 -404 -2 -13 -8 -51 -14 -84 -11 -63 -22 -209 -23 -310 -1 -68 10 -269 17
-300 3 -11 7 -31 9 -45 95 -582 433 -1124 976 -1564 47 -38 87 -72 90 -75 3
-4 16 -14 30 -23 14 -10 48 -34 75 -54 194 -139 460 -301 677 -409 114 -57
484 -224 638 -288 373 -154 836 -281 1135 -311 28 -3 84 -8 125 -12 146 -15
720 -7 831 11 13 2 47 6 74 10 125 15 331 71 445 122 30 14 71 32 90 41 71 32
238 137 330 208 134 103 277 244 365 358 17 22 39 51 51 65 93 117 204 387
229 556 4 22 8 47 10 55 4 15 9 54 20 164 8 74 8 260 0 351 -5 68 -24 235 -30
265 -2 8 -10 56 -19 105 -42 229 -166 639 -251 830 l-25 57 -37 -23 c-21 -12
-57 -35 -81 -51 -24 -15 -45 -28 -47 -28 -10 0 -222 -155 -300 -218 -177 -143
-362 -354 -445 -507 -18 -33 -36 -64 -40 -70 -13 -19 -61 -160 -77 -225 -18
-74 -25 -233 -13 -285 12 -54 -5 -42 -29 21 -68 178 -75 391 -20 563 91 283
356 605 725 878 97 72 159 116 242 171 50 35 92 64 92 65 0 1 -140 2 -311 2
-171 0 -313 3 -315 6 -2 4 30 94 72 200 41 107 77 199 78 204 2 6 7 19 11 30
5 11 16 40 25 64 9 25 23 45 31 47 542 89 991 206 1364 354 79 31 282 128 320
152 205 133 338 309 439 580 59 158 90 302 90 408 0 80 -8 123 -39 226 -21 69
-23 85 -13 120 6 21 12 82 12 134 1 88 -1 100 -32 162 -54 110 -153 183 -334
247 -49 17 -88 28 -88 25 0 -2 -8 0 -17 5 -10 5 -31 12 -48 15 -91 17 -286 59
-395 85 -136 33 -211 50 -250 57 -13 3 -56 12 -95 21 -38 8 -79 16 -90 18 -11
2 -52 10 -90 19 -86 18 -106 22 -215 41 -47 9 -95 17 -105 19 -51 9 -179 19
-266 21 -107 1 -121 8 -135 66 -14 60 -8 136 20 234 3 11 12 44 20 74 24 86
14 193 -24 268 -63 123 -201 233 -379 299 -91 34 -98 42 -115 127 -12 56 -16
72 -26 102 -6 18 -12 41 -14 51 -2 10 -14 55 -26 99 -12 44 -29 105 -37 135
-8 30 -25 91 -38 135 -13 44 -40 136 -60 205 -53 181 -194 600 -265 785 -73
190 -114 277 -141 294 -38 23 -84 22 -116 -2z m-2439 -6664 c9 -18 14 -33 12
-33 -6 0 -36 55 -36 66 0 11 5 3 24 -33z"/>
<path d="M9106 6574 c-57 -21 -102 -58 -133 -112 -36 -60 -38 -155 -5 -218 43
-84 146 -137 257 -133 88 3 142 25 196 79 123 123 71 327 -99 384 -56 20 -164
19 -216 0z"/>
<path d="M7503 6412 l-52 -3 0 -875 1 -874 232 0 233 0 0 260 c0 143 2 262 4
265 4 3 124 -171 296 -431 l63 -94 286 0 c304 0 295 -1 254 40 -3 3 -68 84
-145 180 -77 96 -142 177 -145 180 -3 3 -32 39 -65 80 -33 41 -62 77 -66 80
-3 3 -22 27 -42 54 l-37 49 49 61 c54 69 156 199 333 426 66 85 125 161 131
168 7 9 -48 12 -270 12 l-280 0 -74 -105 c-249 -352 -289 -407 -290 -394 0 8
-1 218 -1 467 l-1 452 -31 1 c-144 3 -340 3 -383 1z"/>
<path d="M16599 6412 l-36 -3 0 -875 0 -874 234 0 234 0 -3 85 c-2 47 0 85 5
85 4 0 7 -4 7 -8 0 -4 20 -28 45 -53 45 -46 125 -96 167 -105 91 -19 122 -22
193 -19 175 8 323 95 420 245 40 63 82 158 92 210 2 14 8 43 12 65 10 45 10
47 11 170 3 262 -109 487 -295 598 -209 125 -498 85 -632 -87 -13 -16 -23 -25
-24 -20 0 5 0 138 0 297 l0 287 -32 1 c-128 3 -368 3 -398 1z m778 -841 c89
-45 132 -132 128 -261 -4 -149 -85 -244 -218 -257 -179 -16 -291 148 -246 359
11 54 20 70 64 114 32 33 65 55 90 62 56 15 134 8 182 -17z"/>
<path d="M2723 5495 l0 -835 234 0 234 0 -2 73 c0 39 -1 190 0 335 l1 262 280
0 280 0 1 -72 c0 -40 0 -191 0 -335 l0 -263 233 0 233 0 0 835 0 835 -233 0
-232 0 -1 -305 c0 -168 -2 -309 -5 -314 -3 -5 -129 -8 -281 -8 l-275 0 -1 26
c0 14 0 155 0 314 l0 287 -233 0 -233 0 0 -835z"/>
<path d="M12629 6308 c0 -13 -3 -34 -5 -48 -2 -14 -11 -61 -19 -105 -18 -101
-26 -145 -30 -170 -5 -38 -15 -101 -20 -125 -3 -14 -10 -52 -15 -85 -6 -33
-13 -72 -16 -87 l-6 -28 160 0 c143 0 160 2 165 18 12 35 44 119 60 152 8 19
41 98 72 175 32 77 75 182 96 233 l38 92 -240 0 -239 0 -1 -22z"/>
<path d="M13792 5495 l0 -835 493 0 492 0 -1 178 -1 177 -253 2 c-139 0 -256
4 -259 7 -3 3 -6 298 -6 656 l0 650 -232 0 -232 0 -1 -835z"/>
<path d="M6568 6005 c-2 -2 -23 -5 -48 -9 -74 -9 -101 -16 -154 -38 -116 -49
-190 -117 -238 -217 -29 -60 -32 -75 -32 -161 0 -111 21 -170 82 -234 74 -77
144 -108 370 -161 79 -20 164 -44 188 -54 102 -45 67 -150 -51 -156 -83 -3
-153 36 -181 102 l-14 32 -224 -1 -224 -1 4 -26 c11 -67 19 -90 47 -146 60
-120 197 -220 362 -266 90 -24 253 -32 355 -17 183 28 324 117 387 246 25 51
28 67 28 162 0 92 -3 111 -25 155 -34 67 -108 138 -183 175 -34 17 -143 51
-241 75 -195 49 -236 67 -250 108 -20 56 28 97 112 97 73 -1 125 -29 151 -84
l23 -46 209 0 209 0 -6 38 c-34 218 -205 380 -439 418 -40 6 -212 13 -217 9z"/>
<path d="M10200 5999 c-243 -27 -454 -196 -525 -421 -94 -298 -20 -608 189
-786 177 -151 500 -193 732 -96 52 22 162 95 197 130 70 73 140 191 153 262
l7 32 -249 0 -249 0 -23 -36 c-28 -43 -80 -67 -145 -65 -93 2 -170 71 -182
165 l-7 46 441 0 441 0 1 43 c0 23 1 58 1 77 1 329 -194 575 -507 640 -69 14
-194 19 -275 9z m203 -383 c46 -19 82 -59 96 -107 7 -22 10 -43 7 -46 -7 -7
-396 -7 -403 0 -3 4 6 31 21 61 27 56 67 90 124 105 36 11 116 4 155 -13z"/>
<path d="M11607 6004 c-1 -1 -20 -5 -42 -8 -117 -19 -223 -68 -295 -139 -84
-82 -119 -171 -115 -293 4 -125 46 -201 153 -276 58 -40 211 -90 352 -114 14
-3 34 -8 45 -11 11 -4 25 -8 31 -9 6 -1 32 -11 58 -22 76 -34 84 -99 17 -140
-26 -16 -46 -18 -126 -13 -38 2 -104 53 -119 92 l-15 37 -218 0 c-120 0 -221
-2 -224 -4 -14 -8 15 -113 48 -174 74 -138 232 -241 423 -276 68 -12 236 -11
315 3 161 27 303 122 363 243 24 49 27 66 27 160 -1 127 -18 173 -94 248 -71
70 -150 105 -353 156 -196 49 -234 65 -248 102 -26 68 26 109 126 101 74 -5
106 -25 135 -84 l21 -43 209 0 c125 0 209 4 209 10 0 26 -33 131 -57 180 -35
72 -141 177 -215 213 -83 40 -179 59 -301 61 -59 1 -109 1 -110 0z"/>
<path d="M15377 6004 c-1 -1 -18 -5 -37 -8 -274 -43 -469 -327 -464 -676 3
-203 51 -355 152 -479 61 -74 85 -94 164 -136 205 -109 500 -64 608 93 13 18
25 30 28 28 2 -3 4 -41 4 -85 l0 -81 234 0 234 0 0 665 0 665 -235 0 -235 0 0
-87 0 -87 -37 44 c-58 67 -157 123 -243 137 -26 5 -170 10 -173 7z m290 -419
c118 -35 190 -189 157 -339 -26 -121 -134 -204 -253 -194 -136 13 -228 135
-217 291 10 134 57 205 164 243 49 17 88 17 149 -1z"/>
<path d="M4473 5538 c2 -249 7 -466 11 -482 61 -263 233 -408 481 -408 157 1
267 44 363 143 l48 49 -1 -90 -1 -90 233 0 c215 0 233 1 234 18 1 23 1 1283 0
1300 -1 9 -55 12 -233 12 l-233 0 -1 -393 c-1 -426 -2 -427 -59 -496 -40 -46
-89 -66 -165 -65 -100 0 -168 51 -201 149 -10 30 -13 132 -13 422 l-1 383
-233 0 -233 0 4 -452z"/>
<path d="M8983 5325 l0 -665 233 0 233 0 -1 665 -1 665 -232 0 -232 0 0 -665z"/>
</g>
</svg>
